<svg xmlns="http://www.w3.org/2000/svg" viewBox="0 0 500 500"><g id="freepik--background-simple--inject-13"><path d="M455.67,244.81A260.4,260.4,0,0,0,396.24,117c-18.22-21.12-41.91-44.1-70.4-62.25C254,9,165,22,128,68S24,319,29,373s151,103,246,91,176-73,184-140C462.14,297.74,459.74,269.47,455.67,244.81Z" style="fill:#D84040"></path><path d="M455.67,244.81A260.4,260.4,0,0,0,396.24,117c-18.22-21.12-41.91-44.1-70.4-62.25C254,9,165,22,128,68S24,319,29,373s151,103,246,91,176-73,184-140C462.14,297.74,459.74,269.47,455.67,244.81Z" style="fill:#fff;opacity:0.7000000000000001"></path></g><g id="freepik--Floor--inject-13"><line x1="452" y1="463" x2="464" y2="463" style="fill:none;stroke:#263238;stroke-linecap:round;stroke-linejoin:round"></line><line x1="187" y1="463" x2="444" y2="463" style="fill:none;stroke:#263238;stroke-linecap:round;stroke-linejoin:round"></line><line x1="54" y1="463" x2="178" y2="463" style="fill:none;stroke:#263238;stroke-linecap:round;stroke-linejoin:round"></line></g><g id="freepik--Plants--inject-13"><path d="M458.42,368.07s.73-2.64.75-2.81c.28-2-.36-6-2.39-7a2.67,2.67,0,0,0-3.64,1.61c-.55,1.5.14,3.34,1,4.6C455.06,366,458.42,368.06,458.42,368.07Z" style="fill:#263238"></path><path d="M418.29,367.19c1.62.71,5.59.62,5.59.62s-.85-2.6-.93-2.75c-.87-1.82-3.62-4.83-5.86-4.53a2.67,2.67,0,0,0-2.15,3.35C415.31,365.44,416.91,366.59,418.29,367.19Z" style="fill:#263238"></path><path d="M470.27,353.69c-2.25-.25-4.92,2.83-5.74,4.68-.07.16-.9,2.78-.85,2.78h0c-.42.48-.87,1-1.35,1.58-.88,1.08-1.87,2.31-2.85,3.72a47.11,47.11,0,0,0-2.94,4.7,35,35,0,0,0-2.52,5.67s0,.05,0,.07c0-.66,0-2.52,0-2.66-.26-2-1.94-5.72-4.16-6.13a2.69,2.69,0,0,0-3.09,2.52c-.13,1.59,1,3.18,2.15,4.19,1.27,1.13,4.79,2.23,5.07,2.31a47.86,47.86,0,0,0-1.49,6.14c-.21,1.21-.39,2.44-.56,3.67,0-.57,0-1.09,0-1.16-.25-2-1.93-5.72-4.16-6.13a2.68,2.68,0,0,0-3.08,2.52c-.13,1.59,1,3.18,2.15,4.19s4.12,2,4.91,2.26l-.18,1.42c-.27,2.27-.53,4.54-.85,6.75-.12.78-.26,1.54-.39,2.31,0-.51,0-.94,0-1-.26-2-1.94-5.72-4.16-6.13a2.68,2.68,0,0,0-3.09,2.51c-.13,1.59,1,3.19,2.15,4.19a17,17,0,0,0,4.77,2.22c-.16.78-.32,1.56-.52,2.31-.14.51-.25,1-.42,1.51l-.48,1.49c-.34.93-.69,1.89-1,2.8-.24.63-.48,1.22-.73,1.82.13-.77.33-2.3.34-2.43a10.37,10.37,0,0,0-1.4-5.05,2.88,2.88,0,0,0,0-.59,2.68,2.68,0,0,0-3.27-2.27c-2.19.58-3.57,4.42-3.68,6.43,0,.12.07,1.42.14,2.24-.11-.48-.22-.94-.33-1.43-.23-1-.49-1.92-.76-2.95-.15-.5-.3-1-.46-1.5s-.35-1-.52-1.53c-.44-1.18-.93-2.36-1.46-3.53.85-.2,3.84-1,5-1.89s2.47-2.42,2.46-4a2.67,2.67,0,0,0-2.89-2.74c-2.25.24-4.2,3.82-4.61,5.8,0,.12-.16,1.58-.21,2.37-.33-.7-.64-1.4-1-2.1-1-2-2.09-4-3.15-6.06l-1-1.85c.3-.07,3.88-.9,5.22-1.94s2.47-2.42,2.46-4a2.67,2.67,0,0,0-2.89-2.74c-2.25.24-4.2,3.82-4.61,5.8,0,.15-.22,2.24-.24,2.77-.71-1.36-1.4-2.72-2-4.1a47.11,47.11,0,0,1-2.21-5.7c.14,0,3.88-.88,5.26-1.94,1.2-.91,2.46-2.41,2.45-4a2.67,2.67,0,0,0-2.89-2.74c-2.24.24-4.19,3.82-4.6,5.8,0,.13-.17,1.72-.23,2.48l-.12,0a33.89,33.89,0,0,1-1.15-6c-.13-1.12-.19-2.2-.22-3.26.71-.08,4-.52,5.31-1.33s2.71-2.14,2.88-3.72a2.67,2.67,0,0,0-2.57-3c-2.26,0-4.6,3.34-5.22,5.26,0,.1-.26,1.2-.41,2,0-.47,0-1,0-1.42,0-1.71.11-3.27.21-4.66.07-.78.15-1.49.23-2.16.65-.45,3.26-2.29,4.07-3.61s1.43-3.15.84-4.63a2.68,2.68,0,0,0-3.68-1.52c-2,1-2.54,5.08-2.21,7.08,0,.17.79,2.81.82,2.78l0,0c-.08.64-.17,1.32-.25,2.07-.14,1.39-.28,2.95-.32,4.67a45.67,45.67,0,0,0,.13,5.54,34.33,34.33,0,0,0,1,6.12.19.19,0,0,0,0,.07c-.36-.56-1.4-2.09-1.5-2.19-1.32-1.53-4.77-3.71-6.85-2.82a2.67,2.67,0,0,0-1.18,3.8c.76,1.4,2.61,2.09,4.1,2.31,1.68.24,5.22-.78,5.5-.87a48.36,48.36,0,0,0,2.15,5.95c.49,1.12,1,2.24,1.55,3.36-.32-.47-.61-.89-.66-.95-1.32-1.52-4.77-3.7-6.85-2.81a2.67,2.67,0,0,0-1.18,3.8c.76,1.4,2.6,2.09,4.1,2.31s4.55-.6,5.35-.83l.63,1.28c1,2.05,2.06,4.08,3,6.1.34.72.64,1.43.95,2.15-.29-.42-.54-.77-.58-.82-1.32-1.53-4.77-3.7-6.85-2.82a2.68,2.68,0,0,0-1.19,3.8c.77,1.4,2.61,2.09,4.11,2.31a17.19,17.19,0,0,0,5.2-.78c.3.74.59,1.48.84,2.21.16.51.35,1,.48,1.49l.42,1.51c.23,1,.48,2,.68,2.91.14.65.27,1.28.4,1.92-.33-.72-1-2.1-1.06-2.21-1.08-1.71-4.16-4.38-6.35-3.82a2.68,2.68,0,0,0-1.75,3.58c.55,1.49,2.27,2.46,3.71,2.9,1.59.48,5.1,0,5.54,0,.21,1.05.41,2.08.57,3,.6,3.36,1,6.18,1.19,8.15,0,.35.07.67.11,1h-6.81L435,463h12.41l2.07-40.51H443.1c0-.1.09-.19.14-.29.87-1.81,2.07-4.42,3.38-7.6.41-1,.83-2.09,1.25-3.21.43.09,3.91.8,5.53.43s3.25-1.16,3.91-2.62a2.67,2.67,0,0,0-1.47-3.69c-2.15-.72-5.42,1.71-6.62,3.33-.07.1-.72,1.23-1.12,1.94.17-.45.34-.9.51-1.37.34-.93.66-1.87,1-2.88.15-.5.3-1,.45-1.5s.26-1,.4-1.56c.29-1.23.53-2.48.74-3.75a17.6,17.6,0,0,0,5.24,1.21c1.51-.11,3.39-.66,4.26-2a2.67,2.67,0,0,0-.9-3.88c-2-1-5.61.87-7,2.3-.09.09-1,1.23-1.49,1.86.12-.76.25-1.53.34-2.3.28-2.24.49-4.52.71-6.79.07-.7.15-1.39.22-2.08.29.1,3.73,1.39,5.42,1.27,1.51-.11,3.39-.66,4.26-2a2.67,2.67,0,0,0-.9-3.88c-2-1-5.61.88-7,2.3-.11.11-1.42,1.75-1.73,2.18.16-1.53.34-3.05.57-4.54a48.53,48.53,0,0,1,1.3-6c.14.05,3.73,1.4,5.46,1.28,1.5-.1,3.39-.66,4.26-2a2.68,2.68,0,0,0-.9-3.88c-2-1-5.61.87-7,2.3-.1.09-1.09,1.34-1.56,1.94l-.11-.06a34.56,34.56,0,0,1,2.37-5.67c.52-1,1.06-1.94,1.62-2.83.64.32,3.59,1.75,5.16,1.81s3.44-.28,4.46-1.51a2.69,2.69,0,0,0-.47-4c-1.89-1.25-5.68.26-7.25,1.51-.09.07-.89.86-1.46,1.45l.77-1.2c.94-1.42,1.9-2.67,2.75-3.76.49-.62.95-1.17,1.38-1.69.79,0,4-.11,5.39-.76s2.93-1.84,3.26-3.4A2.67,2.67,0,0,0,470.27,353.69Zm-24.89,60.39c-1.36,3.12-2.61,5.68-3.51,7.45l-.49,1h-.15c-.05-.34-.09-.72-.15-1.15-.28-2-.71-4.83-1.38-8.2-.21-1.07-.45-2.21-.72-3.37a27.05,27.05,0,0,0,3.09-1.45,19.54,19.54,0,0,0,4.51,2.9C446.18,412.21,445.78,413.18,445.38,414.08Z" style="fill:#263238"></path><path d="M418.29,367.19c1.62.71,5.59.62,5.59.62s-.85-2.6-.93-2.75c-.87-1.82-3.62-4.83-5.86-4.53a2.67,2.67,0,0,0-2.15,3.35C415.31,365.44,416.91,366.59,418.29,367.19Z" style="fill:#263238;opacity:0.30000000000000004"></path><path d="M458.42,368.07s.73-2.64.75-2.81c.28-2-.36-6-2.39-7a2.67,2.67,0,0,0-3.64,1.61c-.55,1.5.14,3.34,1,4.6C455.06,366,458.42,368.06,458.42,368.07Z" style="fill:#263238;opacity:0.30000000000000004"></path><path d="M470.27,353.69c-2.25-.25-4.92,2.83-5.74,4.68-.07.16-.9,2.78-.85,2.78h0c-.42.48-.87,1-1.35,1.58-.88,1.08-1.87,2.31-2.85,3.72a47.11,47.11,0,0,0-2.94,4.7,35,35,0,0,0-2.52,5.67s0,.05,0,.07c0-.66,0-2.52,0-2.66-.26-2-1.94-5.72-4.16-6.13a2.69,2.69,0,0,0-3.09,2.52c-.13,1.59,1,3.18,2.15,4.19,1.27,1.13,4.79,2.23,5.07,2.31a47.86,47.86,0,0,0-1.49,6.14c-.21,1.21-.39,2.44-.56,3.67,0-.57,0-1.09,0-1.16-.25-2-1.93-5.72-4.16-6.13a2.68,2.68,0,0,0-3.08,2.52c-.13,1.59,1,3.18,2.15,4.19s4.12,2,4.91,2.26l-.18,1.42c-.27,2.27-.53,4.54-.85,6.75-.12.78-.26,1.54-.39,2.31,0-.51,0-.94,0-1-.26-2-1.94-5.72-4.16-6.13a2.68,2.68,0,0,0-3.09,2.51c-.13,1.59,1,3.19,2.15,4.19a17,17,0,0,0,4.77,2.22c-.16.78-.32,1.56-.52,2.31-.14.51-.25,1-.42,1.51l-.48,1.49c-.34.93-.69,1.89-1,2.8-.24.63-.48,1.22-.73,1.82.13-.77.33-2.3.34-2.43a10.37,10.37,0,0,0-1.4-5.05,2.88,2.88,0,0,0,0-.59,2.68,2.68,0,0,0-3.27-2.27c-2.19.58-3.57,4.42-3.68,6.43,0,.12.07,1.42.14,2.24-.11-.48-.22-.94-.33-1.43-.23-1-.49-1.92-.76-2.95-.15-.5-.3-1-.46-1.5s-.35-1-.52-1.53c-.44-1.18-.93-2.36-1.46-3.53.85-.2,3.84-1,5-1.89s2.47-2.42,2.46-4a2.67,2.67,0,0,0-2.89-2.74c-2.25.24-4.2,3.82-4.61,5.8,0,.12-.16,1.58-.21,2.37-.33-.7-.64-1.4-1-2.1-1-2-2.09-4-3.15-6.06l-1-1.85c.3-.07,3.88-.9,5.22-1.94s2.47-2.42,2.46-4a2.67,2.67,0,0,0-2.89-2.74c-2.25.24-4.2,3.82-4.61,5.8,0,.15-.22,2.24-.24,2.77-.71-1.36-1.4-2.72-2-4.1a47.11,47.11,0,0,1-2.21-5.7c.14,0,3.88-.88,5.26-1.94,1.2-.91,2.46-2.41,2.45-4a2.67,2.67,0,0,0-2.89-2.74c-2.24.24-4.19,3.82-4.6,5.8,0,.13-.17,1.72-.23,2.48l-.12,0a33.89,33.89,0,0,1-1.15-6c-.13-1.12-.19-2.2-.22-3.26.71-.08,4-.52,5.31-1.33s2.71-2.14,2.88-3.72a2.67,2.67,0,0,0-2.57-3c-2.26,0-4.6,3.34-5.22,5.26,0,.1-.26,1.2-.41,2,0-.47,0-1,0-1.42,0-1.71.11-3.27.21-4.66.07-.78.15-1.49.23-2.16.65-.45,3.26-2.29,4.07-3.61s1.43-3.15.84-4.63a2.68,2.68,0,0,0-3.68-1.52c-2,1-2.54,5.08-2.21,7.08,0,.17.79,2.81.82,2.78l0,0c-.08.64-.17,1.32-.25,2.07-.14,1.39-.28,2.95-.32,4.67a45.67,45.67,0,0,0,.13,5.54,34.33,34.33,0,0,0,1,6.12.19.19,0,0,0,0,.07c-.36-.56-1.4-2.09-1.5-2.19-1.32-1.53-4.77-3.71-6.85-2.82a2.67,2.67,0,0,0-1.18,3.8c.76,1.4,2.61,2.09,4.1,2.31,1.68.24,5.22-.78,5.5-.87a48.36,48.36,0,0,0,2.15,5.95c.49,1.12,1,2.24,1.55,3.36-.32-.47-.61-.89-.66-.95-1.32-1.52-4.77-3.7-6.85-2.81a2.67,2.67,0,0,0-1.18,3.8c.76,1.4,2.6,2.09,4.1,2.31s4.55-.6,5.35-.83l.63,1.28c1,2.05,2.06,4.08,3,6.1.34.72.64,1.43.95,2.15-.29-.42-.54-.77-.58-.82-1.32-1.53-4.77-3.7-6.85-2.82a2.68,2.68,0,0,0-1.19,3.8c.77,1.4,2.61,2.09,4.11,2.31a17.19,17.19,0,0,0,5.2-.78c.3.74.59,1.48.84,2.21.16.51.35,1,.48,1.49l.42,1.51c.23,1,.48,2,.68,2.91.14.65.27,1.28.4,1.92-.33-.72-1-2.1-1.06-2.21-1.08-1.71-4.16-4.38-6.35-3.82a2.68,2.68,0,0,0-1.75,3.58c.55,1.49,2.27,2.46,3.71,2.9,1.59.48,5.1,0,5.54,0,.21,1.05.41,2.08.57,3,.6,3.36,1,6.18,1.19,8.15,0,.35.07.67.11,1h-6.81L435,463h12.41l2.07-40.51H443.1c0-.1.09-.19.14-.29.87-1.81,2.07-4.42,3.38-7.6.41-1,.83-2.09,1.25-3.21.43.09,3.91.8,5.53.43s3.25-1.16,3.91-2.62a2.67,2.67,0,0,0-1.47-3.69c-2.15-.72-5.42,1.71-6.62,3.33-.07.1-.72,1.23-1.12,1.94.17-.45.34-.9.51-1.37.34-.93.66-1.87,1-2.88.15-.5.3-1,.45-1.5s.26-1,.4-1.56c.29-1.23.53-2.48.74-3.75a17.6,17.6,0,0,0,5.24,1.21c1.51-.11,3.39-.66,4.26-2a2.67,2.67,0,0,0-.9-3.88c-2-1-5.61.87-7,2.3-.09.09-1,1.23-1.49,1.86.12-.76.25-1.53.34-2.3.28-2.24.49-4.52.71-6.79.07-.7.15-1.39.22-2.08.29.1,3.73,1.39,5.42,1.27,1.51-.11,3.39-.66,4.26-2a2.67,2.67,0,0,0-.9-3.88c-2-1-5.61.88-7,2.3-.11.11-1.42,1.75-1.73,2.18.16-1.53.34-3.05.57-4.54a48.53,48.53,0,0,1,1.3-6c.14.05,3.73,1.4,5.46,1.28,1.5-.1,3.39-.66,4.26-2a2.68,2.68,0,0,0-.9-3.88c-2-1-5.61.87-7,2.3-.1.09-1.09,1.34-1.56,1.94l-.11-.06a34.56,34.56,0,0,1,2.37-5.67c.52-1,1.06-1.94,1.62-2.83.64.32,3.59,1.75,5.16,1.81s3.44-.28,4.46-1.51a2.69,2.69,0,0,0-.47-4c-1.89-1.25-5.68.26-7.25,1.51-.09.07-.89.86-1.46,1.45l.77-1.2c.94-1.42,1.9-2.67,2.75-3.76.49-.62.95-1.17,1.38-1.69.79,0,4-.11,5.39-.76s2.93-1.84,3.26-3.4A2.67,2.67,0,0,0,470.27,353.69Zm-24.89,60.39c-1.36,3.12-2.61,5.68-3.51,7.45l-.49,1h-.15c-.05-.34-.09-.72-.15-1.15-.28-2-.71-4.83-1.38-8.2-.21-1.07-.45-2.21-.72-3.37a27.05,27.05,0,0,0,3.09-1.45,19.54,19.54,0,0,0,4.51,2.9C446.18,412.21,445.78,413.18,445.38,414.08Z" style="fill:#263238;opacity:0.30000000000000004"></path></g><g id="freepik--Graphics--inject-13"><path d="M182,314v84.85a8.5,8.5,0,0,1-8.51,8.51H133.13a8.5,8.5,0,0,1-8.51-8.51V314a8.51,8.51,0,0,1,8.51-8.51H150l0,.06c.5,1.8,1.65,3,2.92,3h.73c1.28,0,2.43-1.17,2.93-3l0-.06h16.87A8.51,8.51,0,0,1,182,314Z" style="fill:none;stroke:#263238;stroke-linecap:round;stroke-linejoin:round"></path><rect x="129" y="319" width="46" height="4" style="fill:none;stroke:#263238;stroke-linecap:round;stroke-linejoin:round"></rect><rect x="129" y="330" width="46" height="4" style="fill:none;stroke:#263238;stroke-linecap:round;stroke-linejoin:round"></rect><rect x="129" y="341" width="46" height="4" style="fill:none;stroke:#263238;stroke-linecap:round;stroke-linejoin:round"></rect><rect x="129" y="363" width="46" height="4" style="fill:none;stroke:#263238;stroke-linecap:round;stroke-linejoin:round"></rect><rect x="129" y="374" width="46" height="4" style="fill:none;stroke:#263238;stroke-linecap:round;stroke-linejoin:round"></rect><rect x="129" y="385" width="46" height="4" style="fill:none;stroke:#263238;stroke-linecap:round;stroke-linejoin:round"></rect><path d="M418,64v84.85a8.51,8.51,0,0,1-8.51,8.51H369.13a8.51,8.51,0,0,1-8.51-8.51V64a8.51,8.51,0,0,1,8.51-8.51H386l0,.06c.5,1.8,1.65,3,2.92,3h.73c1.28,0,2.43-1.16,2.93-3l0-.06h16.87A8.51,8.51,0,0,1,418,64Z" style="fill:none;stroke:#263238;stroke-linecap:round;stroke-linejoin:round"></path><rect x="366.23" y="116.46" width="46.5" height="31.54" style="fill:none;stroke:#263238;stroke-linecap:round;stroke-linejoin:round"></rect><line x1="366.23" y1="148" x2="412.73" y2="116.46" style="fill:none;stroke:#263238;stroke-linecap:round;stroke-linejoin:round"></line><line x1="412.73" y1="148" x2="366.23" y2="116.46" style="fill:none;stroke:#263238;stroke-linecap:round;stroke-linejoin:round"></line><rect x="366.23" y="100.43" width="46.5" height="8.02" style="fill:none;stroke:#263238;stroke-linecap:round;stroke-linejoin:round"></rect><line x1="366.23" y1="108.45" x2="412.73" y2="100.43" style="fill:none;stroke:#263238;stroke-linecap:round;stroke-linejoin:round"></line><line x1="412.73" y1="108.45" x2="366.23" y2="100.43" style="fill:none;stroke:#263238;stroke-linecap:round;stroke-linejoin:round"></line><rect x="366.23" y="85.2" width="46.5" height="8.02" style="fill:none;stroke:#263238;stroke-linecap:round;stroke-linejoin:round"></rect><line x1="366.23" y1="93.21" x2="412.73" y2="85.2" style="fill:none;stroke:#263238;stroke-linecap:round;stroke-linejoin:round"></line><line x1="412.73" y1="93.21" x2="366.23" y2="85.2" style="fill:none;stroke:#263238;stroke-linecap:round;stroke-linejoin:round"></line><rect x="366.23" y="69.96" width="46.5" height="8.02" style="fill:none;stroke:#263238;stroke-linecap:round;stroke-linejoin:round"></rect><line x1="366.23" y1="77.98" x2="412.73" y2="69.96" style="fill:none;stroke:#263238;stroke-linecap:round;stroke-linejoin:round"></line><line x1="412.73" y1="77.98" x2="366.23" y2="69.96" style="fill:none;stroke:#263238;stroke-linecap:round;stroke-linejoin:round"></line><circle cx="431.36" cy="119.34" r="9.07" style="fill:none;stroke:#263238;stroke-linecap:round;stroke-linejoin:round"></circle><polyline points="426.69 116.88 431.23 121.98 442 108.38" style="fill:none;stroke:#263238;stroke-linecap:round;stroke-linejoin:round"></polyline><path d="M110.31,77v84.85a8.5,8.5,0,0,1-8.51,8.51H61.44a8.5,8.5,0,0,1-8.51-8.51V77a8.51,8.51,0,0,1,8.51-8.51H78.31l0,.06c.5,1.8,1.65,3,2.92,3H82c1.28,0,2.43-1.17,2.93-3v-.06H101.8A8.51,8.51,0,0,1,110.31,77Z" style="fill:none;stroke:#263238;stroke-linecap:round;stroke-linejoin:round"></path><rect x="67.62" y="93" width="28" height="26" style="fill:none;stroke:#263238;stroke-linecap:round;stroke-linejoin:round"></rect><rect x="61.4" y="140.52" width="40.43" height="15.08" style="fill:none;stroke:#263238;stroke-linecap:round;stroke-linejoin:round"></rect><path d="M77.17,128.16a2,2,0,1,1-2-2A2,2,0,0,1,77.17,128.16Z" style="fill:none;stroke:#263238;stroke-linecap:round;stroke-linejoin:round"></path><path d="M83.6,128.16a2,2,0,1,1-2-2A2,2,0,0,1,83.6,128.16Z" style="fill:none;stroke:#263238;stroke-linecap:round;stroke-linejoin:round"></path><circle cx="88.05" cy="128.16" r="1.98" style="fill:none;stroke:#263238;stroke-linecap:round;stroke-linejoin:round"></circle><line x1="53.36" y1="81.17" x2="109.75" y2="81.17" style="fill:none;stroke:#263238;stroke-linecap:round;stroke-linejoin:round"></line><circle cx="244.72" cy="408.11" r="16.44" style="fill:none;stroke:#263238;stroke-linecap:round;stroke-linejoin:round"></circle><polyline points="236.26 403.65 244.48 412.9 264 388.25" style="fill:none;stroke:#263238;stroke-linecap:round;stroke-linejoin:round"></polyline></g><g id="freepik--Device--inject-13"><path d="M331.16,84.76V337a25.3,25.3,0,0,1-25.3,25.29h-120A25.29,25.29,0,0,1,160.62,337V84.76a25.29,25.29,0,0,1,25.29-25.28h50.16l.05.18c1.48,5.34,4.89,8.81,8.68,8.81H247c3.79,0,7.2-3.47,8.69-8.81l.06-.18h50.14A25.29,25.29,0,0,1,331.16,84.76Z" style="fill:#fff"></path><rect x="160.92" y="126.72" width="134.34" height="143.87" style="fill:#263238;stroke:#263238;stroke-linecap:round;stroke-linejoin:round"></rect><path d="M255.66,59.66c-1.49,5.34-4.9,8.81-8.69,8.81H244.8c-3.79,0-7.2-3.47-8.68-8.81l-.05-.18H185.91a25.3,25.3,0,0,0-25,21.31H330.84a25.3,25.3,0,0,0-25-21.31H255.72Z" style="fill:#d4d4d4"></path><path d="M342,152.06V120h-2.9V79a25.3,25.3,0,0,0-25.29-25.3H178A25.3,25.3,0,0,0,152.67,79V355A25.29,25.29,0,0,0,178,380.3H313.81A25.29,25.29,0,0,0,339.1,355V179.38H342V160.44h-2.9v-8.38ZM331.16,337a25.3,25.3,0,0,1-25.3,25.29h-120A25.29,25.29,0,0,1,160.62,337V84.76a25.29,25.29,0,0,1,25.29-25.28h50.16l.05.18c1.48,5.34,4.89,8.81,8.68,8.81H247c3.79,0,7.2-3.47,8.69-8.81l.06-.18h50.14a25.29,25.29,0,0,1,25.3,25.28Z" style="fill:#707070;stroke:#263238;stroke-linejoin:round"></path><path d="M310.88,57.18h-130A25.29,25.29,0,0,0,155.6,82.47V351.53a25.29,25.29,0,0,0,25.29,25.29h130a25.29,25.29,0,0,0,25.29-25.29V82.47A25.29,25.29,0,0,0,310.88,57.18ZM331.16,337a25.3,25.3,0,0,1-25.3,25.29h-120A25.29,25.29,0,0,1,160.62,337V84.76a25.29,25.29,0,0,1,25.29-25.28h50.16l.05.18c1.48,5.34,4.89,8.81,8.68,8.81H247c3.79,0,7.2-3.47,8.69-8.81l.06-.18h50.14a25.29,25.29,0,0,1,25.3,25.28Z" style="fill:#263238;stroke:#263238;stroke-linejoin:round"></path><path d="M247.74,60.69a2.38,2.38,0,1,0-2.37,2.37A2.38,2.38,0,0,0,247.74,60.69Z" style="fill:#fff"></path><path d="M175.78,69.79c0,2.4-2.7,3.26-2.71,5.1V75h2.62v.81h-3.5v-.68c0-2.58,2.7-3.08,2.7-5.32,0-.82-.27-1.25-.93-1.25S173,69,173,69.74v.71h-.83V69.8c0-1.22.56-2,1.79-2S175.78,68.57,175.78,69.79Z" style="fill:#263238"></path><path d="M180.14,69.78V70a1.58,1.58,0,0,1-1,1.64,1.58,1.58,0,0,1,1,1.65v.61c0,1.22-.57,2-1.8,2s-1.79-.8-1.79-2v-.54h.83v.6c0,.72.3,1.15.94,1.15s.93-.42.93-1.23v-.61c0-.79-.33-1.16-1-1.19h-.48v-.79h.52a1,1,0,0,0,1-1.1v-.36c0-.82-.28-1.24-.93-1.24s-.94.44-.94,1.16v.41h-.83v-.36c0-1.22.57-2,1.79-2S180.14,68.56,180.14,69.78Z" style="fill:#263238"></path><path d="M181.86,70.38v1.1H181v-1.1Zm0,4.34v1.1H181v-1.1Z" style="fill:#263238"></path><path d="M183.66,71.1a1.27,1.27,0,0,1,1.18-.66c1,0,1.48.75,1.48,1.89v1.55c0,1.22-.58,2-1.8,2s-1.79-.8-1.79-2v-.53h.84v.59c0,.72.29,1.15.93,1.15s.93-.43.93-1.15V72.39c0-.71-.29-1.15-.93-1.15a.86.86,0,0,0-.9.86v.18h-.83l.22-4.43h3.14v.8h-2.35Z" style="fill:#263238"></path><path d="M190.75,69.76v.15h-.83v-.2c0-.72-.3-1.14-.95-1.14s-1,.43-1,1.28v1.79a1.28,1.28,0,0,1,1.28-.85c1,0,1.48.74,1.48,1.89v1.2c0,1.22-.6,2-1.82,2s-1.83-.8-1.83-2V69.82c0-1.26.57-2,1.83-2S190.75,68.55,190.75,69.76Zm-2.74,3v1.19c0,.72.29,1.15.94,1.15s1-.43,1-1.15V72.75c0-.72-.31-1.15-1-1.15S188,72,188,72.75Z" style="fill:#263238"></path><rect x="275.5" y="70.11" width="2.25" height="5.63" style="fill:#263238"></rect><rect x="278.5" y="68.99" width="2.25" height="6.75" style="fill:#263238"></rect><rect x="281.5" y="68.19" width="2.25" height="7.55" style="fill:#263238"></rect><rect x="284.5" y="66.8" width="2.25" height="8.94" style="fill:#263238"></rect><path d="M314.59,75.58h-13.5V67.33h13.5Zm-12.75-.75h12V68.08h-12Z" style="fill:#263238"></path><rect x="302.96" y="68.9" width="7.13" height="5.12" style="fill:#263238"></rect><rect x="314.12" y="70.49" width="1.7" height="1.94" style="fill:#263238"></rect><path d="M296.14,73.79a.48.48,0,0,1-.26-.07c-2.75-1.63-4.56-.12-4.64,0a.51.51,0,0,1-.71,0,.51.51,0,0,1,.05-.71c.1-.09,2.42-2.08,5.82-.06a.51.51,0,0,1-.26.94Z" style="fill:#263238"></path><path d="M297.16,72.1a.5.5,0,0,1-.26-.08c-4-2.36-6.64-.07-6.67,0a.51.51,0,0,1-.71,0,.5.5,0,0,1,0-.71s3.25-2.78,7.85,0a.5.5,0,0,1-.25.94Z" style="fill:#263238"></path><path d="M298.08,70.13a.48.48,0,0,1-.26-.07c-5-3-8.38-.17-8.52,0a.5.5,0,0,1-.66-.76s4-3.43,9.7,0a.5.5,0,0,1,.17.69A.49.49,0,0,1,298.08,70.13Z" style="fill:#263238"></path><path d="M294.62,74.63a1.27,1.27,0,1,1-1.26-1.26A1.27,1.27,0,0,1,294.62,74.63Z" style="fill:#263238"></path><rect x="144.2" y="121.52" width="145.61" height="141.27" style="fill:#D84040;stroke:#263238;stroke-linecap:round;stroke-linejoin:round"></rect><rect x="156.33" y="133.29" width="121.34" height="90.5" style="fill:#fff;stroke:#263238;stroke-linecap:round;stroke-linejoin:round"></rect><line x1="276.2" y1="133.29" x2="154.86" y2="223.79" style="fill:none;stroke:#263238;stroke-linecap:round;stroke-linejoin:round"></line><line x1="156.33" y1="133.29" x2="277.67" y2="223.79" style="fill:none;stroke:#263238;stroke-linecap:round;stroke-linejoin:round"></line><circle cx="200.53" cy="237.66" r="4.33" style="fill:#fff;stroke:#263238;stroke-linecap:round;stroke-linejoin:round"></circle><circle cx="217" cy="237.66" r="4.33" style="fill:#fff;stroke:#263238;stroke-linecap:round;stroke-linejoin:round"></circle><circle cx="233.47" cy="237.66" r="4.33" style="fill:#fff;stroke:#263238;stroke-linecap:round;stroke-linejoin:round"></circle><rect x="174.53" y="275.79" width="68.73" height="76.27" style="fill:#D84040;stroke:#263238;stroke-linecap:round;stroke-linejoin:round"></rect><rect x="180.67" y="302.66" width="55.78" height="41.6" style="fill:#fff;stroke:#263238;stroke-linecap:round;stroke-linejoin:round"></rect><line x1="235.77" y1="302.66" x2="179.99" y2="344.26" style="fill:none;stroke:#263238;stroke-linecap:round;stroke-linejoin:round"></line><line x1="180.67" y1="302.66" x2="236.45" y2="344.26" style="fill:none;stroke:#263238;stroke-linecap:round;stroke-linejoin:round"></line><rect x="186.93" y="283.6" width="42.47" height="8.67" style="fill:#fff;stroke:#263238;stroke-linecap:round;stroke-linejoin:round"></rect><rect x="251.06" y="275.79" width="69.08" height="76.27" style="fill:#D84040;stroke:#263238;stroke-linecap:round;stroke-linejoin:round"></rect><rect x="257.81" y="302.66" width="55.78" height="41.6" style="fill:#fff;stroke:#263238;stroke-linecap:round;stroke-linejoin:round"></rect><line x1="312.91" y1="302.66" x2="257.13" y2="344.26" style="fill:none;stroke:#263238;stroke-linecap:round;stroke-linejoin:round"></line><line x1="257.81" y1="302.66" x2="313.59" y2="344.26" style="fill:none;stroke:#263238;stroke-linecap:round;stroke-linejoin:round"></line><rect x="264.06" y="283.6" width="42.47" height="8.67" style="fill:#fff;stroke:#263238;stroke-linecap:round;stroke-linejoin:round"></rect><line x1="175.66" y1="98.12" x2="194.73" y2="98.12" style="fill:none;stroke:#263238;stroke-linecap:round;stroke-linejoin:round"></line><line x1="175.66" y1="104.19" x2="194.73" y2="104.19" style="fill:none;stroke:#263238;stroke-linecap:round;stroke-linejoin:round"></line><line x1="175.66" y1="110.26" x2="194.73" y2="110.26" style="fill:none;stroke:#263238;stroke-linecap:round;stroke-linejoin:round"></line><rect x="209.46" y="98.12" width="84.07" height="13" style="fill:#D84040;stroke:#263238;stroke-linecap:round;stroke-linejoin:round"></rect></g><g id="freepik--character-2--inject-13"><path d="M371.54,227.25s.25-4.2-1-4.2-3.45,0-3.45,1-.25,3-.25,3-4.19,1.23-4.68,2-3.21.5-3.46,2.72a91.83,91.83,0,0,0,.25,9.37L373,236.62a8.82,8.82,0,0,0,1.23-3c.25-1.48.75-4.19,1.49-4.93s2-2.47,0-2.47A12.24,12.24,0,0,0,371.54,227.25Z" style="fill:#fff;stroke:#263238;stroke-linecap:round;stroke-linejoin:round"></path><path d="M371.54,227.25a3.09,3.09,0,0,0-1,2.46" style="fill:none;stroke:#263238;stroke-linecap:round;stroke-linejoin:round"></path><path d="M380.67,192s-5.18,6.17-5.18,7.9v4.19s-5.92,5.43-5.92,6.67,1.72,3.2,1.72,3.2-.49,10.12,1,11.35,6.42.5,6.42.5l1.23,4.44,18.75-4.44,4.93-5.68s4.45-2.22,6.42-10.86-1-17.51-4.94-20-16.53-7.4-21.46-6.41S376.72,188.76,380.67,192Z" style="fill:#fff;stroke:#263238;stroke-linecap:round;stroke-linejoin:round"></path><path d="M410,209.23c2-8.63-1-17.51-4.94-20s-16.53-7.4-21.46-6.41-6.91,5.92-3,9.12l2.22,3s-4.19,4.19-3.7,5.42,3,2,3,2-1.23,4.19.25,4.93a1.62,1.62,0,0,0,2.22-.74s.24,3.95.49,7.16,1.23,9.37,4.44,10.85c2.88,1.33,5.56,1.27,9.1,1.24h0l4.93-5.68S408.06,217.87,410,209.23Z" style="fill:#263238;stroke:#263238;stroke-linecap:round;stroke-linejoin:round"></path><path d="M381.16,209.73s1.73-4.94,3.46-3.21,1.23,8.14,0,9.62-3.46-.49-3.46-.49" style="fill:#fff;stroke:#263238;stroke-linecap:round;stroke-linejoin:round"></path><path d="M374.25,233.66l-.49-3s9.62-4.93,14.56-5.92,8.63-1,10.36,0,3.95,7.15,3.95,7.15-8.88-3-15.05-1-13.08,4.68-13.08,4.68Z" style="fill:#fff;stroke:#263238;stroke-linecap:round;stroke-linejoin:round"></path><path d="M357.54,460.22a37.78,37.78,0,0,1-6.24,3.4c-3.41,1.42-5.11,2.27-4.54,4.26s5.11,2.83,10.5,4.25,13.05,3.69,16.17,3.12,3.69-2.27,3.69-4-2.27-8.51-2.27-8.51Z" style="fill:none;stroke:#263238;stroke-linecap:round;stroke-linejoin:round"></path><path d="M404.36,461.35s-1.42,9.36-.29,11.35,9.65,2,11.35.85a6.36,6.36,0,0,0,2.27-3.4l-1.13-11.35-13.91,2.55" style="fill:#fff;stroke:#263238;stroke-linecap:round;stroke-linejoin:round"></path><path d="M356.12,333.67s0,39.15.57,54.76a276.65,276.65,0,0,0,4,34.9c.29,1.13-.85,32.06-.85,32.06l-3.4,2.27-.29,4s3.69,5.4,9.08,7.67S376,469,376,469s2.84-11.63,3.41-12.77,2.27-35.18,2.27-40.29V393.54l5.11-41.71.28-4.26s7.38,46.53,8.51,53.06,5.39,21.56,6,27,2,26.38,2,26.38l-.86,7.38,2.27,3.41a21.06,21.06,0,0,0,7.1,1.41c3.69,0,5.11-3.68,5.11-3.68V454c0-2.55-.86-6-.86-6.81s1.71-31.77,1.14-42.27-3.69-62.42-3.69-62.42l.85-8.8s-21.56,5.39-36.32,2.27-21.84-5.68-21.84-5.68v2.27Z" style="fill:#263238;stroke:#263238;stroke-linecap:round;stroke-linejoin:round"></path><path d="M421.38,240.07s1.73,1.73,3.95,7.65,16,38.74,14.31,40.46-25.91,18.76-25.91,18.76l-2.47-7.16L422.37,285l-8.15-16s-3-3.21-1.72-10.61S421.38,240.07,421.38,240.07Z" style="fill:#D84040;stroke:#263238;stroke-linecap:round;stroke-linejoin:round"></path><polygon points="419.1 259.26 424.76 282.85 431.97 286.94 422.37 284.98 415.4 271.16 419.1 259.26" style="fill:#263238;stroke:#263238;stroke-linecap:round;stroke-linejoin:round"></polygon><path d="M420.88,253.4l-10.36,34.29.5,7.4s.74,1.73,2.22,4.94,10.36,26.4,9.62,27.63-5.68,3.45-5.68,3.45l-.24,4.2a125.35,125.35,0,0,1-13.33,4.44c-5.92,1.48-19.24,2-28.86,1S353,334.07,353,334.07A135.25,135.25,0,0,1,355.75,319c1.48-5.18,6.17-27.63,6.17-27.63l-3.21-19.24-3,6.66s-6.66,10.86-8.39,12.09-6.91,2.22-9.87-.49-2-11.35,0-15.3,13.57-28.37,13.57-30.1,24.68-11.1,24.68-11.1,12.08-3.7,19.73-3.7,11.11,3,11.11,3,12.82,3.7,14.8,6.9.24,10.12.24,10.12" style="fill:#D84040;stroke:#263238;stroke-linecap:round;stroke-linejoin:round"></path><polygon points="416.39 328.86 410.75 300.98 419.22 329.92 417.18 331.11 416.39 328.86" style="fill:#263238;stroke:#263238;stroke-linecap:round;stroke-linejoin:round"></polygon><line x1="355.83" y1="259.28" x2="355.01" y2="255.62" style="fill:none;stroke:#263238;stroke-linecap:round;stroke-linejoin:round"></line><line x1="358.71" y1="272.15" x2="356.71" y2="263.23" style="fill:none;stroke:#263238;stroke-linecap:round;stroke-linejoin:round"></line><line x1="376.48" y1="291.39" x2="399.67" y2="287.2" style="fill:none;stroke:#263238;stroke-linecap:round;stroke-linejoin:round"></line><line x1="395.64" y1="291.56" x2="400.16" y2="291.15" style="fill:none;stroke:#263238;stroke-linecap:round;stroke-linejoin:round"></line><line x1="381.16" y1="292.87" x2="393.93" y2="291.71" style="fill:none;stroke:#263238;stroke-linecap:round;stroke-linejoin:round"></line><path d="M369.36,236.48s5.43-3.37,6.18-3.93,9.74-4.68,16.48-5.24,8.43,0,8.43,0l2.81,4.68s-19.48,1.31-25.09,3a87.57,87.57,0,0,1-10.49,2.43Z" style="fill:#D84040;stroke:#263238;stroke-linecap:round;stroke-linejoin:round"></path></g></svg>